<svg xmlns="http://www.w3.org/2000/svg" viewBox="0 0 1200 800" width="1200" height="800" role="img" aria-label="Full-wall wooden bookshelf illustration — Virat Furniture">
<defs>
  <linearGradient id="bk-wall" x1="0" y1="0" x2="0" y2="1">
    <stop offset="0" stop-color="#F6F1E7"/><stop offset="1" stop-color="#e4dfd5"/>
  </linearGradient>
  <linearGradient id="bk-floor" x1="0" y1="0" x2="0" y2="1">
    <stop offset="0" stop-color="#D9BE9E"/><stop offset="1" stop-color="#c0a585"/>
  </linearGradient>
  <linearGradient id="bk-sky" x1="0" y1="0" x2="0" y2="1">
    <stop offset="0" stop-color="#CFE0F7"/><stop offset="1" stop-color="#F2F8FF"/>
  </linearGradient>
  <linearGradient id="bk-shaft" x1="0" y1="0" x2="0" y2="1">
    <stop offset="0" stop-color="#FFFFFF" stop-opacity="0.5"/><stop offset="1" stop-color="#FFFFFF" stop-opacity="0"/>
  </linearGradient>
  <linearGradient id="bk-woodv" x1="0" y1="0" x2="0" y2="1">
    <stop offset="0" stop-color="#C39B6E"/><stop offset="1" stop-color="#A67848"/>
  </linearGradient>
  <linearGradient id="bk-woodh" x1="0" y1="0" x2="1" y2="0">
    <stop offset="0" stop-color="#C39B6E"/><stop offset="0.5" stop-color="#A67848"/><stop offset="1" stop-color="#6F4526"/>
  </linearGradient>
  <linearGradient id="bk-royalv" x1="0" y1="0" x2="0" y2="1">
    <stop offset="0" stop-color="#2F58C4"/><stop offset="1" stop-color="#24448F"/>
  </linearGradient>
  <linearGradient id="bk-royald" x1="0" y1="0" x2="0" y2="1">
    <stop offset="0" stop-color="#24448F"/><stop offset="1" stop-color="#18306B"/>
  </linearGradient>
  <linearGradient id="bk-goldv" x1="0" y1="0" x2="0" y2="1">
    <stop offset="0" stop-color="#E4C56C"/><stop offset="1" stop-color="#C9A227"/>
  </linearGradient>
  <linearGradient id="bk-mirror" x1="0" y1="0" x2="1" y2="1">
    <stop offset="0" stop-color="#C7D6EA"/><stop offset="0.55" stop-color="#EDF4FC"/><stop offset="1" stop-color="#C2D2E8"/>
  </linearGradient>
  <linearGradient id="bk-screen" x1="0" y1="0" x2="1" y2="1">
    <stop offset="0" stop-color="#1D2A4A"/><stop offset="1" stop-color="#0E1730"/>
  </linearGradient>
  <linearGradient id="bk-metal" x1="0" y1="0" x2="0" y2="1">
    <stop offset="0" stop-color="#E6EAF0"/><stop offset="1" stop-color="#AEB8C6"/>
  </linearGradient>
  <radialGradient id="bk-glow" cx="0.5" cy="0.45" r="0.55">
    <stop offset="0" stop-color="#FFE9B0" stop-opacity="0.95"/><stop offset="1" stop-color="#FFE9B0" stop-opacity="0"/>
  </radialGradient>
  <radialGradient id="bk-ambient" cx="0.32" cy="0.18" r="0.9">
    <stop offset="0" stop-color="#FFFFFF" stop-opacity="0.20"/><stop offset="1" stop-color="#FFFFFF" stop-opacity="0"/>
  </radialGradient>
  <radialGradient id="bk-vig" cx="0.5" cy="0.5" r="0.72">
    <stop offset="0.78" stop-color="#1B2B52" stop-opacity="0"/><stop offset="1" stop-color="#1B2B52" stop-opacity="0.10"/>
  </radialGradient>
  <filter id="bk-soft" x="-60%" y="-60%" width="220%" height="220%"><feGaussianBlur stdDeviation="9"/></filter>
  <filter id="bk-soft2" x="-80%" y="-80%" width="260%" height="260%"><feGaussianBlur stdDeviation="16"/></filter>
</defs>
<rect width="1200" height="560" fill="url(#bk-wall)"/>
<rect y="560" width="1200" height="240" fill="url(#bk-floor)"/>
<rect y="550" width="1200" height="10" fill="#FFFFFF" opacity="0.35"/>
<line x1="0" y1="604" x2="1200" y2="604" stroke="#1B2B52" stroke-opacity="0.06" stroke-width="2"/><line x1="260" y1="558" x2="260" y2="604" stroke="#1B2B52" stroke-opacity="0.05" stroke-width="2"/><line x1="600" y1="558" x2="600" y2="604" stroke="#1B2B52" stroke-opacity="0.05" stroke-width="2"/><line x1="940" y1="558" x2="940" y2="604" stroke="#1B2B52" stroke-opacity="0.05" stroke-width="2"/><line x1="0" y1="650" x2="1200" y2="650" stroke="#1B2B52" stroke-opacity="0.06" stroke-width="2"/><line x1="260" y1="604" x2="260" y2="650" stroke="#1B2B52" stroke-opacity="0.05" stroke-width="2"/><line x1="600" y1="604" x2="600" y2="650" stroke="#1B2B52" stroke-opacity="0.05" stroke-width="2"/><line x1="940" y1="604" x2="940" y2="650" stroke="#1B2B52" stroke-opacity="0.05" stroke-width="2"/><line x1="0" y1="696" x2="1200" y2="696" stroke="#1B2B52" stroke-opacity="0.06" stroke-width="2"/><line x1="260" y1="650" x2="260" y2="696" stroke="#1B2B52" stroke-opacity="0.05" stroke-width="2"/><line x1="600" y1="650" x2="600" y2="696" stroke="#1B2B52" stroke-opacity="0.05" stroke-width="2"/><line x1="940" y1="650" x2="940" y2="696" stroke="#1B2B52" stroke-opacity="0.05" stroke-width="2"/><line x1="0" y1="742" x2="1200" y2="742" stroke="#1B2B52" stroke-opacity="0.06" stroke-width="2"/><line x1="260" y1="696" x2="260" y2="742" stroke="#1B2B52" stroke-opacity="0.05" stroke-width="2"/><line x1="600" y1="696" x2="600" y2="742" stroke="#1B2B52" stroke-opacity="0.05" stroke-width="2"/><line x1="940" y1="696" x2="940" y2="742" stroke="#1B2B52" stroke-opacity="0.05" stroke-width="2"/><line x1="0" y1="788" x2="1200" y2="788" stroke="#1B2B52" stroke-opacity="0.06" stroke-width="2"/><line x1="260" y1="742" x2="260" y2="788" stroke="#1B2B52" stroke-opacity="0.05" stroke-width="2"/><line x1="600" y1="742" x2="600" y2="788" stroke="#1B2B52" stroke-opacity="0.05" stroke-width="2"/><line x1="940" y1="742" x2="940" y2="788" stroke="#1B2B52" stroke-opacity="0.05" stroke-width="2"/>

<g transform="translate(340,100) scale(1)">
  <ellipse cx="260" cy="462" rx="262" ry="16" fill="#1B2B52" opacity="0.16" filter="url(#bk-soft)"/>
  <rect x="-14" y="-14" width="540" height="470" rx="14" fill="url(#bk-woodh)"/>
  <rect x="0" y="110" width="512" height="14" fill="#653b1c"/><rect x="0" y="220" width="512" height="14" fill="#653b1c"/><rect x="0" y="330" width="512" height="14" fill="#653b1c"/><rect x="0" y="440" width="512" height="14" fill="#653b1c"/>
  <rect x="0" y="0" width="12" height="452" fill="#653b1c"/><rect x="128" y="0" width="12" height="452" fill="#653b1c"/><rect x="256" y="0" width="12" height="452" fill="#653b1c"/><rect x="384" y="0" width="12" height="452" fill="#653b1c"/><rect x="500" y="0" width="12" height="452" fill="#653b1c"/>
  <rect x="0" y="0" width="512" height="12" fill="#653b1c"/>
  <rect x="18" y="40" width="15" height="60" rx="2.5" fill="#C9A227" transform="rotate(0 18 100)"/><rect x="37" y="27" width="13" height="73" rx="2.5" fill="#D8E2D2" transform="rotate(0 37 100)"/><rect x="54" y="36" width="11" height="64" rx="2.5" fill="#B4633C" transform="rotate(0 54 100)"/><rect x="69" y="23" width="18" height="77" rx="2.5" fill="#C39B6E" transform="rotate(0 69 100)"/><rect x="91" y="32" width="16" height="68" rx="2.5" fill="#24448F" transform="rotate(0 91 100)"/><rect x="150" y="60" width="66" height="40" rx="4" fill="#24448F"/><rect x="156" y="48" width="54" height="12" rx="3" fill="#E4C56C"/><rect x="274" y="23" width="18" height="77" rx="2.5" fill="#C39B6E" transform="rotate(0 274 100)"/><rect x="296" y="32" width="16" height="68" rx="2.5" fill="#24448F" transform="rotate(0 296 100)"/><rect x="316" y="41" width="14" height="59" rx="2.5" fill="#2F58C4" transform="rotate(0 316 100)"/><rect x="334" y="28" width="12" height="72" rx="2.5" fill="#7C93C9" transform="rotate(-10 334 100)"/><rect x="350" y="37" width="10" height="63" rx="2.5" fill="#C9A227" transform="rotate(0 350 100)"/><g transform="translate(398,22) scale(0.9)">
  <path d="M12 44 h40 l-5 30 h-30 z" fill="#B4633C"/>
  <path d="M32 44 C28 24 16 18 8 14 C22 16 30 26 32 34 C34 18 28 10 32 0 C40 12 38 26 36 36 C40 24 50 18 58 16 C48 26 38 32 34 44 Z" fill="#5F8D5F"/>
</g><g transform="translate(20,132) scale(0.85)">
  <path d="M12 44 h40 l-5 30 h-30 z" fill="#B4633C"/>
  <path d="M32 44 C28 24 16 18 8 14 C22 16 30 26 32 34 C34 18 28 10 32 0 C40 12 38 26 36 36 C40 24 50 18 58 16 C48 26 38 32 34 44 Z" fill="#5F8D5F"/>
</g><rect x="146" y="147" width="10" height="63" rx="2.5" fill="#C9A227" transform="rotate(0 146 210)"/><rect x="160" y="134" width="17" height="76" rx="2.5" fill="#D8E2D2" transform="rotate(0 160 210)"/><rect x="181" y="143" width="15" height="67" rx="2.5" fill="#B4633C" transform="rotate(0 181 210)"/><rect x="200" y="152" width="13" height="58" rx="2.5" fill="#C39B6E" transform="rotate(0 200 210)"/><rect x="217" y="139" width="11" height="71" rx="2.5" fill="#24448F" transform="rotate(-10 217 210)"/><rect x="274" y="139" width="11" height="71" rx="2.5" fill="#24448F" transform="rotate(0 274 210)"/><rect x="289" y="148" width="18" height="62" rx="2.5" fill="#2F58C4" transform="rotate(0 289 210)"/><rect x="311" y="135" width="16" height="75" rx="2.5" fill="#7C93C9" transform="rotate(0 311 210)"/><rect x="331" y="144" width="14" height="66" rx="2.5" fill="#C9A227" transform="rotate(0 331 210)"/><rect x="349" y="153" width="12" height="57" rx="2.5" fill="#D8E2D2" transform="rotate(0 349 210)"/><path d="M414 168 q10 -22 26 0 l-4 40 h-18 z" fill="url(#bk-goldv)"/><rect x="18" y="263" width="12" height="57" rx="2.5" fill="#D8E2D2" transform="rotate(0 18 320)"/><rect x="34" y="250" width="10" height="70" rx="2.5" fill="#B4633C" transform="rotate(0 34 320)"/><rect x="48" y="259" width="17" height="61" rx="2.5" fill="#C39B6E" transform="rotate(0 48 320)"/><rect x="69" y="246" width="15" height="74" rx="2.5" fill="#24448F" transform="rotate(0 69 320)"/><rect x="88" y="255" width="13" height="65" rx="2.5" fill="#2F58C4" transform="rotate(0 88 320)"/><rect x="150" y="282" width="70" height="36" rx="4" fill="#D8E2D2"/><rect x="146" y="270" width="58" height="12" rx="3" fill="#B4633C"/><rect x="274" y="255" width="13" height="65" rx="2.5" fill="#2F58C4" transform="rotate(0 274 320)"/><rect x="291" y="264" width="11" height="56" rx="2.5" fill="#7C93C9" transform="rotate(0 291 320)"/><rect x="306" y="251" width="18" height="69" rx="2.5" fill="#C9A227" transform="rotate(-10 306 320)"/><rect x="328" y="260" width="16" height="60" rx="2.5" fill="#D8E2D2" transform="rotate(0 328 320)"/><rect x="348" y="247" width="14" height="73" rx="2.5" fill="#B4633C" transform="rotate(0 348 320)"/><rect x="402" y="247" width="14" height="73" rx="2.5" fill="#B4633C" transform="rotate(0 402 320)"/><rect x="420" y="256" width="12" height="64" rx="2.5" fill="#C39B6E" transform="rotate(0 420 320)"/><rect x="436" y="243" width="10" height="77" rx="2.5" fill="#24448F" transform="rotate(0 436 320)"/><rect x="450" y="252" width="17" height="68" rx="2.5" fill="#2F58C4" transform="rotate(-10 450 320)"/><rect x="471" y="261" width="15" height="59" rx="2.5" fill="#7C93C9" transform="rotate(0 471 320)"/>
  <g transform="rotate(8 560 470)"><rect x="540" y="60" width="9" height="410" fill="#C39B6E"/><rect x="576" y="60" width="9" height="410" fill="#C39B6E"/>
  <rect x="540" y="120" width="45" height="8" fill="#C39B6E"/><rect x="540" y="200" width="45" height="8" fill="#C39B6E"/><rect x="540" y="280" width="45" height="8" fill="#C39B6E"/><rect x="540" y="360" width="45" height="8" fill="#C39B6E"/></g>
</g>
<g transform="translate(150,340) scale(1.15)">
  <ellipse cx="60" cy="256" rx="52" ry="12" fill="#1B2B52" opacity="0.14" filter="url(#bk-soft)"/>
  <path d="M38 200 h44 l-7 52 h-30 z" fill="#B4633C"/>
  <path d="M38 200 h44 l-2 12 h-40 z" fill="#95441d"/>
  <path d="M60 198 C58 150 40 130 18 108 C48 116 60 140 62 160 C64 120 52 92 60 58 C74 96 70 130 68 156 C76 128 96 112 112 104 C96 130 78 150 66 198 Z" fill="#5F8D5F"/>
  <path d="M60 198 C52 160 30 150 14 146 C40 148 56 166 60 180 M62 198 C70 158 94 146 108 142 C88 148 70 168 66 186" fill="#46704A" opacity="0.8"/>
</g>
<g transform="translate(220,300)">
  <ellipse cx="42" cy="296" rx="44" ry="10" fill="#1B2B52" opacity="0.13" filter="url(#bk-soft)"/>
  <rect x="38" y="90" width="7" height="200" fill="#55351C"/>
  <ellipse cx="42" cy="292" rx="34" ry="9" fill="#55351C"/>
  <path d="M10 90 h64 l-10 -58 h-44 z" fill="url(#bk-goldv)"/>
  <ellipse cx="42" cy="92" rx="30" ry="8" fill="#FFE9B0" opacity="0.85"/>
  <circle cx="42" cy="96" r="72" fill="url(#bk-glow)" opacity="0.5"/>
</g>
<g>
  <rect x="340" y="700" width="520" height="74" rx="22" fill="#E9E0CE"/>
  <rect x="354" y="712" width="492" height="50" rx="14" fill="none" stroke="#C9A227" stroke-opacity="0.35" stroke-width="3"/>
  <rect x="370" y="724" width="460" height="26" rx="10" fill="none" stroke="#1B2B52" stroke-opacity="0.08" stroke-width="2"/>
</g>
<g><ellipse cx="1030" cy="704" rx="80" ry="12" fill="#1B2B52" opacity="0.15" filter="url(#bk-soft)"/>
<rect x="950" y="560" width="160" height="140" rx="14" fill="#24448F"/>
<rect x="962" y="572" width="136" height="20" rx="10" fill="#FFFFFF" opacity="0.12"/>
<rect x="978" y="690" width="16" height="16" fill="#55351C"/><rect x="1066" y="690" width="16" height="16" fill="#55351C"/>
<g transform="rotate(-8 1000 596)"><rect x="972" y="560" width="56" height="56" rx="14" fill="url(#bk-goldv)"/></g>
</g>

<rect width="1200" height="800" fill="url(#bk-ambient)"/>
<rect width="1200" height="800" fill="url(#bk-vig)"/>
</svg>